<svg xmlns="http://www.w3.org/2000/svg" xmlns:xlink="http://www.w3.org/1999/xlink" width="500" zoomAndPan="magnify" viewBox="0 0 375 374.999991" height="500" preserveAspectRatio="xMidYMid meet" version="1.0"><path fill="#ffffff" d="M 201.507812 234.363281 C 200.515625 234.773438 199.589844 235.378906 198.78125 236.1875 C 197.976562 236.992188 197.371094 237.917969 196.957031 238.910156 C 196.546875 239.902344 196.320312 240.988281 196.320312 242.128906 C 196.320312 243.273438 196.546875 244.355469 196.957031 245.347656 C 197.371094 246.339844 197.976562 247.265625 198.78125 248.070312 L 224 273.289062 C 227.277344 276.566406 232.605469 276.566406 235.882812 273.289062 C 239.164062 270.011719 239.164062 264.679688 235.882812 261.402344 L 225.015625 250.535156 L 279.894531 250.535156 C 293.824219 250.535156 305.113281 239.246094 305.113281 225.320312 C 305.113281 204.777344 305.113281 170.210938 305.113281 149.667969 C 305.113281 142.980469 302.457031 136.566406 297.722656 131.839844 C 293 127.109375 286.585938 124.453125 279.894531 124.453125 C 255.367188 124.453125 212.652344 124.453125 212.652344 124.453125 C 208.011719 124.453125 204.246094 128.21875 204.246094 132.859375 C 204.246094 137.5 208.011719 141.265625 212.652344 141.265625 C 212.652344 141.265625 255.367188 141.265625 279.894531 141.265625 C 282.121094 141.265625 284.265625 142.148438 285.839844 143.726562 C 287.417969 145.300781 288.300781 147.441406 288.300781 149.667969 C 288.300781 170.210938 288.300781 204.777344 288.300781 225.320312 C 288.300781 229.957031 284.535156 233.722656 279.894531 233.722656 C 279.894531 233.722656 204.726562 233.722656 204.726562 233.722656 C 203.582031 233.722656 202.5 233.949219 201.507812 234.363281 Z M 151.046875 124.453125 L 95.453125 124.453125 C 81.527344 124.453125 70.238281 135.742188 70.238281 149.667969 C 70.238281 170.210938 70.238281 204.777344 70.238281 225.320312 C 70.238281 239.246094 81.527344 250.535156 95.453125 250.535156 L 163.078125 250.535156 C 167.714844 250.535156 171.480469 246.769531 171.480469 242.128906 C 171.480469 237.488281 167.714844 233.722656 163.078125 233.722656 L 95.453125 233.722656 C 90.816406 233.722656 87.050781 229.957031 87.050781 225.320312 C 87.050781 204.777344 87.050781 170.210938 87.050781 149.667969 C 87.050781 145.03125 90.816406 141.265625 95.453125 141.265625 L 169.945312 141.265625 C 172.574219 141.75 175.390625 140.980469 177.425781 138.945312 C 179.0625 137.3125 179.878906 135.171875 179.886719 133.027344 C 179.886719 132.96875 179.886719 132.917969 179.886719 132.859375 C 179.886719 130.078125 178.535156 127.605469 176.441406 126.074219 L 152.207031 101.84375 C 148.929688 98.566406 143.601562 98.566406 140.324219 101.84375 C 137.046875 105.121094 137.046875 110.449219 140.324219 113.726562 Z M 151.046875 124.453125 " fill-opacity="1" fill-rule="evenodd"/></svg>