<svg xmlns="http://www.w3.org/2000/svg" xmlns:xlink="http://www.w3.org/1999/xlink" width="500" zoomAndPan="magnify" viewBox="0 0 375 374.999991" height="500" preserveAspectRatio="xMidYMid meet" version="1.0"><defs><clipPath id="bb1b36d4bd"><path d="M 124.726562 88.554688 L 331.726562 88.554688 L 331.726562 295.554688 L 124.726562 295.554688 Z M 124.726562 88.554688 " clip-rule="nonzero"/></clipPath><clipPath id="3264893cb0"><path d="M 136.933594 111.09375 L 238.183594 111.09375 L 238.183594 264 L 136.933594 264 Z M 136.933594 111.09375 " clip-rule="nonzero"/></clipPath></defs><path fill="#ffffff" d="M 375.007812 187.503906 C 375.007812 291.0625 291.0625 375.007812 187.503906 375.007812 C 83.949219 375.007812 0 291.0625 0 187.503906 C 0 83.949219 83.949219 0 187.503906 0 C 291.0625 0 375.007812 83.949219 375.007812 187.503906 Z M 375.007812 187.503906 " fill-opacity="1" fill-rule="nonzero"/><path fill="#000000" d="M 143.609375 112.609375 L 143.609375 265.605469 L 263.824219 189.109375 Z M 143.609375 112.609375 " fill-opacity="1" fill-rule="nonzero"/><g clip-path="url(#bb1b36d4bd)"><path fill="#ffffff" d="M 124.726562 295.273438 L 271.152344 191.914062 L 124.726562 88.554688 Z M 296.992188 88.554688 L 296.992188 295.273438 L 331.445312 295.273438 L 331.445312 88.554688 Z M 296.992188 88.554688 " fill-opacity="1" fill-rule="nonzero"/></g><g clip-path="url(#3264893cb0)"><path fill="#0d0d0d" d="M 136.933594 111.183594 L 177.632812 111.183594 L 177.632812 264 L 136.933594 264 Z M 197.484375 111.183594 L 197.484375 264 L 238.1875 264 L 238.1875 111.183594 Z M 197.484375 111.183594 " fill-opacity="1" fill-rule="nonzero"/></g></svg>