<svg xmlns="http://www.w3.org/2000/svg" xmlns:xlink="http://www.w3.org/1999/xlink" width="500" zoomAndPan="magnify" viewBox="0 0 375 374.999991" height="500" preserveAspectRatio="xMidYMid meet" version="1.0"><defs><clipPath id="4f4b0c26f5"><path d="M 191 197 L 313 197 L 313 286.6875 L 191 286.6875 Z M 191 197 " clip-rule="nonzero"/></clipPath></defs><g clip-path="url(#4f4b0c26f5)"><path fill="#ffffff" d="M 282.816406 216.859375 C 279.085938 213.128906 272.902344 213.34375 269.457031 217.511719 C 266.457031 221.148438 266.992188 226.558594 270.328125 229.894531 L 284.328125 243.894531 L 270.929688 243.894531 C 248.875 243.894531 227.796875 231.316406 211.582031 208.476562 L 204.066406 197.886719 C 203.34375 196.871094 201.839844 196.871094 201.121094 197.886719 L 192.265625 210.359375 C 191.820312 210.984375 191.820312 211.824219 192.265625 212.449219 L 196.863281 218.925781 C 216.558594 246.667969 242.863281 261.945312 270.929688 261.945312 L 279.792969 261.945312 L 270.359375 271.378906 C 266.722656 275.015625 266.523438 281.167969 270.289062 284.675781 C 272.019531 286.285156 274.226562 287.089844 276.433594 287.089844 C 278.746094 287.089844 281.054688 286.210938 282.816406 284.449219 L 310.230469 257.035156 C 313.753906 253.511719 313.753906 247.796875 310.230469 244.273438 Z M 282.816406 216.859375 " fill-opacity="1" fill-rule="nonzero"/></g><path fill="#ffffff" d="M 263.867188 134.390625 L 282.058594 134.390625 L 270.359375 146.089844 C 266.722656 149.730469 266.527344 155.878906 270.289062 159.386719 C 272.019531 160.996094 274.226562 161.804688 276.4375 161.804688 C 278.746094 161.804688 281.054688 160.921875 282.816406 159.160156 L 310.230469 131.746094 C 313.753906 128.222656 313.753906 122.507812 310.230469 118.984375 L 283.09375 91.847656 C 279.761719 88.511719 274.347656 87.972656 270.710938 90.972656 C 266.539062 94.414062 266.320312 100.601562 270.054688 104.332031 L 282.058594 116.339844 L 263.867188 116.339844 C 232.648438 116.339844 202.433594 133.679688 180.96875 163.917969 L 180.457031 164.636719 L 179.949219 163.917969 C 158.484375 133.683594 128.269531 116.339844 97.050781 116.339844 L 71.164062 116.339844 C 66.449219 116.339844 62.238281 119.785156 61.792969 124.480469 C 61.28125 129.863281 65.5 134.390625 70.777344 134.390625 L 97.050781 134.390625 C 122.34375 134.390625 147.195312 148.960938 165.230469 174.367188 L 169.390625 180.226562 L 157.246094 197.339844 L 149.335938 208.476562 C 148.699219 209.375 148.042969 210.226562 147.390625 211.09375 C 137.328125 224.457031 125.535156 234.007812 112.871094 239.238281 C 105.480469 242.289062 97.800781 243.898438 89.988281 243.898438 L 70.777344 243.898438 C 66.414062 243.898438 62.777344 246.988281 61.933594 251.101562 C 61.761719 251.945312 61.707031 252.832031 61.785156 253.742188 C 62.203125 258.453125 66.390625 261.949219 71.121094 261.949219 L 89.988281 261.949219 C 105.867188 261.949219 121.179688 257.050781 135.054688 247.777344 C 145.703125 240.664062 155.503906 230.972656 164.054688 218.929688 L 195.6875 174.367188 C 213.722656 148.960938 238.574219 134.390625 263.867188 134.390625 Z M 263.867188 134.390625 " fill-opacity="1" fill-rule="nonzero"/></svg>